<?xml version="1.0" encoding="utf-8"?>
<!-- Generator: Adobe Illustrator 27.0.1, SVG Export Plug-In . SVG Version: 6.00 Build 0)  -->
<svg version="1.1" id="Camada_2_00000044869783548709382740000007010414082990492558_"
	 xmlns="http://www.w3.org/2000/svg" xmlns:xlink="http://www.w3.org/1999/xlink" x="0px" y="0px" viewBox="0 0 888.5 227"
	 style="enable-background:new 0 0 888.5 227;" xml:space="preserve">
<style type="text/css">
	.st0{fill:#FFFFFF;}
	.st1{enable-background:new    ;}
</style>
<g id="Camada_1-2">
	<g>
		<g>
			<path class="st0" d="M113.5,0C50.8,0,0,50.8,0,113.5S50.8,227,113.5,227S227,176.2,227,113.5S176.2,0,113.5,0z M49.2,156.4
				l15.2-85.8h21.8l-15.1,85.8H49.2z M105.5,151.9c0,2.5-2,4.6-4.6,4.6H88.2c-2.5,0-4.6-2-4.6-4.6v-12.7c0-2.6,2-4.6,4.6-4.6h12.7
				c2.5,0,4.6,2,4.6,4.6V151.9z M138.2,156.4h-21.8l15.1-85.8h21.9L138.2,156.4z M183.5,87.9c0,2.5-2,4.6-4.6,4.6h-12.7
				c-2.5,0-4.6-2-4.6-4.6V75.1c0.1-2.5,2.1-4.5,4.6-4.5h12.7c2.5,0,4.6,2,4.6,4.6V87.9z"/>
			<g class="st1">
				<g>
					<path class="st0" d="M264.5,151.3V77.1h15.7v61.3H312v12.9L264.5,151.3L264.5,151.3z"/>
				</g>
				<g>
					<path class="st0" d="M357.8,127.6v-32h15.4v55.7h-14.8v-10.1h-0.6c-1.3,3.3-3.3,5.9-6.3,7.9c-2.9,2-6.5,3-10.6,3
						c-3.7,0-7-0.8-9.8-2.5s-5-4.1-6.6-7.2c-1.6-3.1-2.4-6.8-2.4-11.2V95.7h15.4v32.7c0,3.3,0.9,5.9,2.6,7.8s4.1,2.9,7,2.9
						c1.9,0,3.6-0.4,5.2-1.3c1.6-0.9,2.9-2.1,3.9-3.8C357.4,132.2,357.8,130.1,357.8,127.6z"/>
				</g>
				<g>
					<path class="st0" d="M393.3,88.5c-2.3,0-4.3-0.8-5.9-2.3s-2.4-3.4-2.4-5.5s0.8-4,2.4-5.5s3.6-2.3,5.9-2.3s4.3,0.8,5.9,2.3
						s2.4,3.4,2.4,5.5c0,2.2-0.8,4-2.4,5.5C397.6,87.7,395.6,88.5,393.3,88.5z M385.6,151.3V95.7H401v55.7L385.6,151.3L385.6,151.3z
						"/>
				</g>
				<g>
					<path class="st0" d="M413,151.3v-9.2l27.2-33.7V108H414V95.7h44.9v10l-25.6,32.9v0.4h26.5v12.3H413z"/>
				</g>
				<g>
					<path class="st0" d="M495.6,151.3V77.1h29.3c5.6,0,10.4,1,14.4,3s7,4.8,9.1,8.4s3.1,7.9,3.1,12.8s-1.1,9.2-3.2,12.7
						c-2.1,3.5-5.2,6.3-9.2,8.1c-4,1.9-8.9,2.8-14.6,2.8h-19.6v-12.6H522c3,0,5.5-0.4,7.5-1.2s3.5-2.1,4.4-3.7
						c1-1.6,1.5-3.7,1.5-6.1c0-2.5-0.5-4.5-1.5-6.2s-2.5-3-4.5-3.9s-4.5-1.3-7.5-1.3h-10.6v61.4L495.6,151.3L495.6,151.3z
						 M535.7,117.5l18.4,33.8h-17.3l-18-33.8H535.7z"/>
				</g>
				<g>
					<path class="st0" d="M570.1,88.5c-2.3,0-4.3-0.8-5.9-2.3s-2.4-3.4-2.4-5.5s0.8-4,2.4-5.5s3.6-2.3,5.9-2.3
						c2.3,0,4.3,0.8,5.9,2.3c1.6,1.5,2.4,3.4,2.4,5.5c0,2.2-0.8,4-2.4,5.5C574.3,87.7,572.4,88.5,570.1,88.5z M562.3,151.3V95.7
						h15.4v55.7L562.3,151.3L562.3,151.3z"/>
				</g>
				<g>
					<path class="st0" d="M615.2,152.4c-5.7,0-10.6-1.2-14.7-3.6s-7.2-5.8-9.4-10.1s-3.3-9.3-3.3-14.9c0-5.7,1.1-10.7,3.3-15
						s5.4-7.7,9.4-10.1s8.9-3.6,14.6-3.6c4.9,0,9.1,0.9,12.8,2.6c3.6,1.8,6.5,4.2,8.7,7.4c2.1,3.2,3.3,6.9,3.5,11.2h-14.6
						c-0.4-2.8-1.5-5-3.2-6.7c-1.8-1.7-4-2.6-6.9-2.6c-2.4,0-4.5,0.6-6.2,1.9c-1.8,1.3-3.2,3.2-4.1,5.6c-1,2.5-1.5,5.4-1.5,9
						s0.5,6.6,1.5,9.1s2.4,4.4,4.1,5.7c1.8,1.3,3.9,2,6.3,2c1.8,0,3.4-0.4,4.8-1.1c1.4-0.7,2.6-1.8,3.5-3.2s1.5-3.1,1.8-5h14.6
						c-0.2,4.3-1.4,8-3.5,11.2s-4.9,5.7-8.5,7.6C624.4,151.5,620.2,152.4,615.2,152.4z"/>
				</g>
				<g>
					<path class="st0" d="M665.9,152.4c-3.6,0-6.7-0.6-9.5-1.9s-5-3.1-6.6-5.5c-1.6-2.5-2.4-5.5-2.4-9.2c0-3.1,0.6-5.7,1.7-7.8
						c1.1-2.1,2.7-3.8,4.6-5.1c2-1.3,4.2-2.2,6.7-2.9c2.5-0.7,5.1-1.1,7.9-1.4c3.2-0.3,5.8-0.7,7.8-1s3.4-0.8,4.3-1.4
						c0.9-0.6,1.3-1.5,1.3-2.7v-0.2c0-2.3-0.7-4.1-2.2-5.3c-1.4-1.3-3.5-1.9-6.1-1.9c-2.8,0-5,0.6-6.6,1.8s-2.7,2.7-3.3,4.6
						l-14.3-1.2c0.7-3.4,2.1-6.3,4.3-8.8c2.1-2.5,4.9-4.4,8.2-5.7s7.3-2,11.7-2c3.1,0,6.1,0.4,8.9,1.1c2.8,0.7,5.4,1.8,7.6,3.4
						c2.2,1.5,4,3.5,5.2,5.9c1.3,2.4,1.9,5.2,1.9,8.5v37.5h-14.6v-7.7H682c-0.9,1.7-2.1,3.3-3.6,4.6s-3.3,2.3-5.4,3.1
						C671,152,668.6,152.4,665.9,152.4z M670.3,141.7c2.3,0,4.3-0.5,6-1.4s3.1-2.1,4.1-3.7c1-1.5,1.5-3.3,1.5-5.3v-5.9
						c-0.5,0.3-1.1,0.6-2,0.9c-0.8,0.3-1.8,0.5-2.8,0.7s-2.1,0.4-3.1,0.5c-1,0.2-2,0.3-2.8,0.4c-1.8,0.3-3.4,0.7-4.7,1.3
						c-1.4,0.6-2.4,1.4-3.2,2.3c-0.8,1-1.1,2.2-1.1,3.6c0,2.1,0.8,3.7,2.3,4.8S667.9,141.7,670.3,141.7z"/>
				</g>
			</g>
			<g class="st1">
				<g>
					<path class="st0" d="M714.8,151.3V95.7h15v9.7h0.6c1-3.5,2.7-6.1,5.1-7.8s5.1-2.7,8.3-2.7c0.8,0,1.6,0,2.5,0.1s1.7,0.2,2.4,0.4
						v13.7c-0.7-0.2-1.7-0.4-3-0.6s-2.5-0.3-3.5-0.3c-2.3,0-4.3,0.5-6.1,1.5s-3.2,2.3-4.2,4.1c-1,1.7-1.5,3.7-1.5,6v31.5
						L714.8,151.3L714.8,151.3z"/>
				</g>
			</g>
			<g class="st1">
				<g>
					<path class="st0" d="M774.4,152.2c-4.2,0-8.1-1.1-11.5-3.3s-6.1-5.4-8.1-9.7s-3-9.5-3-15.7c0-6.4,1-11.7,3.1-15.9
						c2.1-4.2,4.8-7.4,8.2-9.5s7.2-3.2,11.3-3.2c3.1,0,5.7,0.5,7.8,1.6s3.8,2.4,5.1,3.9c1.3,1.6,2.3,3.1,3,4.6h0.5V77.1h15.4v74.2
						H791v-8.9h-0.7c-0.7,1.5-1.7,3.1-3.1,4.6s-3,2.8-5.1,3.8C780,151.7,777.4,152.2,774.4,152.2z M779.3,139.9c2.5,0,4.6-0.7,6.3-2
						c1.7-1.4,3.1-3.3,4-5.7s1.4-5.4,1.4-8.7s-0.5-6.2-1.4-8.6s-2.2-4.3-4-5.7c-1.7-1.3-3.9-2-6.3-2c-2.5,0-4.7,0.7-6.4,2.1
						s-3.1,3.3-4,5.7c-0.9,2.4-1.3,5.3-1.3,8.5s0.5,6.1,1.4,8.6s2.2,4.4,3.9,5.8C774.7,139.2,776.8,139.9,779.3,139.9z"/>
				</g>
				<g>
					<path class="st0" d="M843.9,152.4c-5.6,0-10.5-1.2-14.6-3.6c-4.1-2.4-7.3-5.8-9.5-10.1s-3.3-9.3-3.3-15s1.1-10.8,3.3-15.1
						c2.2-4.3,5.4-7.7,9.5-10.1s9-3.6,14.6-3.6s10.5,1.2,14.6,3.6s7.3,5.8,9.5,10.1c2.2,4.3,3.3,9.3,3.3,15.1c0,5.7-1.1,10.7-3.3,15
						s-5.4,7.7-9.5,10.1S849.5,152.4,843.9,152.4z M844,140.4c2.6,0,4.7-0.7,6.4-2.2s3-3.5,3.9-6s1.3-5.4,1.3-8.7
						c0-3.2-0.4-6.1-1.3-8.7c-0.9-2.5-2.2-4.5-3.9-6s-3.9-2.2-6.4-2.2c-2.6,0-4.8,0.7-6.5,2.2c-1.8,1.5-3.1,3.5-4,6
						s-1.3,5.4-1.3,8.7c0,3.2,0.4,6.1,1.3,8.7c0.9,2.5,2.2,4.5,4,6C839.2,139.7,841.4,140.4,844,140.4z"/>
				</g>
			</g>
		</g>
		<g class="st1">
			<path class="st0" d="M878.2,94.2c-1.2,0-2.3-0.2-3.4-0.7s-2-1.1-2.8-1.9s-1.4-1.7-1.9-2.8c-0.4-1-0.7-2.2-0.7-3.4
				c0-1.2,0.2-2.3,0.7-3.4s1.1-2,1.9-2.8s1.7-1.4,2.8-1.9s2.2-0.7,3.4-0.7s2.3,0.2,3.4,0.7s2,1.1,2.8,1.9s1.4,1.7,1.9,2.8
				s0.7,2.2,0.7,3.4c0,1.2-0.2,2.3-0.7,3.4c-0.4,1.1-1.1,2-1.9,2.8s-1.7,1.4-2.8,1.9S879.4,94.2,878.2,94.2z M878.2,92.1
				c1.2,0,2.3-0.3,3.3-0.9s1.8-1.4,2.4-2.4c0.6-1,0.9-2.1,0.9-3.3c0-1.2-0.3-2.3-0.9-3.3c-0.6-1-1.4-1.8-2.4-2.4s-2.1-0.9-3.3-0.9
				s-2.3,0.3-3.3,0.9s-1.8,1.4-2.4,2.4c-0.6,1-0.9,2.1-0.9,3.3c0,1.2,0.3,2.3,0.9,3.3c0.6,1,1.4,1.8,2.4,2.4
				C875.9,91.8,877,92.1,878.2,92.1z M875.2,89.4v-8h4.1c0.3,0,0.7,0.1,1.1,0.3s0.7,0.5,1,0.8c0.3,0.4,0.4,0.9,0.4,1.4
				c0,0.6-0.1,1.1-0.4,1.5c-0.3,0.4-0.6,0.7-1,0.9c-0.4,0.2-0.8,0.3-1.1,0.3h-2.9v-1.3h2.4c0.2,0,0.5-0.1,0.8-0.4
				c0.3-0.2,0.4-0.6,0.4-1.1s-0.1-0.8-0.4-1c-0.3-0.2-0.5-0.3-0.7-0.3H877v6.7h-1.8V89.4z M880,85.6l2,3.8h-1.9l-2-3.8H880z"/>
		</g>
	</g>
</g>
</svg>
